<svg viewBox="30 50 180 150" xmlns="http://www.w3.org/2000/svg">
  <path fill="#1aa8a6" d="m 134.02066,68.620567 c -6.59689,0.86618 -13.7175,0.1523 -20.37292,0.1523 H 73.960238 c -8.12726,0 -18.812409,-2.039895 -25.664583,3.14847 -4.862397,3.68173 -6.085416,8.81369 -6.085416,14.57861 0,2.00768 0.831086,6.41487 -0.271931,8.12186 -0.68116,1.05415 -2.619576,0.88355 -3.696819,1.23369 -3.128928,1.01703 -6.409113,3.66365 -5.912091,7.313203 0.40587,2.98025 2.78494,4.95512 5.382924,6.14035 2.196789,1.0022 4.477157,0.66115 4.497715,3.64924 0.01038,1.50926 0.639867,5.03409 -0.42403,6.21404 -0.855769,0.94914 -2.910901,0.88948 -4.073685,1.30168 -2.929028,1.03833 -5.375819,3.81142 -4.978088,7.03636 0.329195,2.66924 2.82528,5.0142 5.242671,5.93843 1.113369,0.42567 2.713667,0.53184 3.620055,1.35436 1.319122,1.19709 0.870296,6.63768 0.552849,8.31274 -0.322428,1.70132 -2.29994,1.63385 -3.643737,2.04868 -2.147325,0.66288 -4.481098,2.2103 -4.937053,4.57079 -0.652193,3.37646 1.219273,6.28163 4.143303,7.85175 1.719348,0.92325 4.388508,0.86316 4.492814,3.26096 0.0737,1.69428 0.755057,6.2322 -0.419129,7.53674 -0.682984,0.75882 -2.097546,0.78952 -3.015352,1.11469 -2.543724,0.9012 -4.889018,2.75515 -5.016263,5.63586 -0.135376,3.0648 1.850169,5.25653 4.487097,6.54599 1.219822,0.5965 3.486011,0.9683 3.884638,2.46147 0.452847,1.69628 0.736551,7.35007 -0.529167,8.63654 -2.463972,2.50437 -7.29366,1.48662 -7.577371,6.43309 -0.181784,3.16936 1.778436,5.22802 4.486483,6.61949 1.362982,0.70031 3.643794,0.83874 3.929557,2.64215 0.313433,1.97805 0.8109,7.62862 -0.625939,9.14547 -2.342444,2.4729 -6.226784,1.27852 -7.169064,5.66997 -0.624158,2.90887 2.017521,5.73755 4.394613,6.97593 1.060432,0.55246 2.776251,0.70634 3.432235,1.81187 0.95532,1.61002 0.14962,4.73038 0.296631,6.55803 0.223694,2.78094 1.812268,5.68081 3.703351,7.66905 4.535108,4.76805 10.581638,4.76637 16.644866,4.76637 h 16.404166 63.500002 20.10833 c 3.77143,0 7.9328,0.37233 11.64167,-0.36482 5.89079,-1.17081 10.69324,-6.50593 11.52837,-12.33518 0.82619,-5.76694 -0.0814,-11.9379 -0.15027,-17.72708 -0.13945,-11.72611 -0.001,-23.46256 -0.001,-35.18959 V 103.96245 88.352037 c 0,-5.75635 0.16617,-10.94722 -4.257,-15.32113 -4.68016,-4.628027 -10.2857,-4.522623 -16.3805,-4.522623 -10.2396,0 -21.33965,-1.219871 -31.48541,0.112283 M 48.031092,101.31662 c 2.049092,0.017 4.447572,1.16398 6.345914,-0.003 2.634344,-1.618653 1.648236,-5.292253 -0.789866,-6.578043 -1.380512,-0.72804 -3.339178,-0.1201 -4.762298,0.23049 -0.03289,-2.20009 2.491975,-2.49942 4.233333,-2.35654 2.491943,0.20446 4.409429,2.30141 4.713505,4.73779 0.30724,2.46171 -0.582039,4.707823 -2.885104,5.846973 -2.230968,1.10348 -6.02577,0.9424 -6.855484,-1.87822 m -9.525,1.5875 c 0.341936,-0.39149 0.592947,-0.68114 1.073852,-0.91338 2.695346,-1.30161 3.057687,2.59994 0.255597,1.60669 -0.49217,-0.17446 -0.888924,-0.41979 -1.329449,-0.69331 m 9.260417,23.54792 c 1.879972,-0.51562 3.470322,1.14342 5.291666,0.53325 3.411614,-1.14292 4.033007,-5.74496 0.783334,-7.52552 -1.593152,-0.87291 -3.364854,0.0381 -5.016667,-0.41606 1.366801,-2.49775 5.093996,-2.34702 7.094754,-0.61266 3.078155,2.66831 2.372594,8.16401 -1.274938,9.91942 -1.051858,0.50622 -2.288975,0.59486 -3.438566,0.4273 -1.507127,-0.21969 -2.584702,-1.12564 -3.439583,-2.32573 m 65.087501,-2.57009 c 3.66108,-0.45104 10.74947,-1.04438 13.32982,2.1279 1.5627,1.92119 1.22226,4.48148 1.22226,6.79219 0,5.37986 0.27896,10.48723 -6.35,11.30135 -3.90323,0.47936 -10.32215,0.93905 -12.90538,-2.59377 -1.42123,-1.94368 -1.11753,-4.31807 -1.11753,-6.59091 0,-4.92157 -0.4394,-10.26551 5.82083,-11.03676 m -73.554168,3.89301 c 1.135154,-3.60501 4.388605,0.90933 1.328222,0.38789 -0.450231,-0.0767 -0.894544,-0.25047 -1.328222,-0.38789 m 8.466667,23.28333 c 1.880925,-0.51174 3.428464,1.21648 5.291666,0.52957 2.974778,-1.09672 4.003688,-5.09278 1.057106,-6.87711 -1.58259,-0.95836 -3.578528,-0.29018 -5.290439,-0.79621 2.618744,-4.06388 8.502154,-0.86703 8.949696,3.175 0.584186,5.27613 -7.353056,9.54086 -10.008029,3.96875 m 51.858329,-3.60372 c 2.720982,-0.55848 5.956072,-0.10045 8.731252,-0.10045 h 17.4625 c 3.11419,0 7.72111,-0.84733 10.58334,0.50794 1.24527,0.58964 2.26116,1.65584 2.78261,2.93165 0.60306,1.47549 0.39239,3.20298 0.39239,4.7625 0,3.71053 0.816,9.13313 -3.70417,10.66193 -2.62185,0.88675 -6.50149,0.18598 -9.26042,0.18598 h -20.63752 c -2.47116,0 -7.874692,1.0237 -9.993732,-0.27193 -1.45698,-0.89082 -0.85418,-4.10256 -0.85418,-5.5489 0,-4.31684 -1.34929,-11.9286 4.49791,-13.12872 m -57.679163,3.60372 c -0.196548,1.17692 -0.746563,1.28838 -1.852083,1.05833 v -0.79375 l 1.852083,-0.26458 m 6.085417,24.07708 c 2.062915,0.18126 3.752339,1.54164 5.819816,0.55041 2.649055,-1.27006 2.865708,-4.966 0.505274,-6.6744 -1.423887,-1.03058 -3.344878,-0.75517 -5.002173,-0.75517 0.768945,-2.33465 4.031407,-2.19703 5.810215,-1.12999 1.938763,1.163 2.799902,3.72326 2.63155,5.89249 -0.341993,4.40664 -8.703878,7.33001 -9.764682,2.11666 m 43.127086,-4.94747 c 3.95529,-0.58924 8.18753,0.18497 12.170832,0.18497 h 28.04583 c 4.11868,0 11.48199,-1.40863 15.07064,0.83193 3.05631,1.90818 1.94585,5.96259 2.15095,8.95766 0.15121,2.20795 0.53206,4.46124 -0.27907,6.61071 -0.6798,1.80144 -2.39021,3.17856 -3.71335,4.50179 l -7.40812,7.40833 c -2.17082,2.17797 -4.18371,5.61665 -7.40855,6.22628 -3.33658,0.63076 -7.19063,0.12372 -10.58333,0.12372 H 98.566488 c -3.25907,0 -8.2923,0.95392 -10.79136,-1.63649 -1.88672,-1.95567 -1.37947,-5.14457 -1.37947,-7.62393 v -14.55208 c 0,-2.25768 -0.394,-4.9424 0.14107,-7.14375 0.50275,-2.06843 2.58391,-3.58557 4.62143,-3.88914 m -49.212503,5.47664 v 0.52917 h -1.5875 v -0.52917 h 1.5875 m 90.487505,0.25234 c -1.71947,0.68829 -3.10044,2.59503 -4.33501,3.90443 -2.64469,2.80498 -5.42141,5.47997 -8.07653,8.27477 -1.23644,1.30149 -2.76701,3.42818 -4.5218,4.02531 -2.14647,0.73038 -5.92334,-4.5526 -7.40833,-5.74959 -0.9488,-0.76481 -2.25227,-1.60352 -3.32485,-0.53814 -1.27986,1.27125 -0.28848,3.05658 0.69352,4.11838 2.06644,2.23439 6.82355,8.87041 10.30425,7.71129 2.42367,-0.80709 4.00865,-3.50037 5.74918,-5.21386 4.11887,-4.05496 9.0146,-7.62795 12.49544,-12.28701 1.0878,-1.45602 1.41537,-5.44295 -1.57587,-4.24558 m -84.666671,24.08933 c 2.13397,-0.58533 4.285906,1.60617 6.304064,0.26213 2.4717,-1.64608 2.481946,-5.21076 0.03532,-6.8414 -1.440876,-0.96032 -3.101579,-0.82907 -4.751882,-0.82907 1.275519,-3.72425 6.710265,-1.07558 7.850732,1.32292 2.918531,6.13793 -6.063059,12.57296 -9.438232,6.08542 m 0.264583,24.34166 c 1.715811,0.075 3.638118,1.44037 5.291667,0.79028 2.765052,-1.08706 3.672345,-4.56606 1.311281,-6.50679 -1.466787,-1.20564 -3.485414,-1.09056 -5.280031,-1.16265 2.334709,-4.46281 8.639136,0.21168 8.639379,3.96875 3.06e-4,4.86488 -8.496882,8.47706 -9.962296,2.91041 z"/>
</svg>
