<?xml version="1.0" encoding="UTF-8" standalone="no"?>
<!-- Created with Inkscape (http://www.inkscape.org/) -->

<svg
   width="210mm"
   height="297mm"
   viewBox="0 0 210 297"
   version="1.1"
   id="svg1"
   xml:space="preserve"
   inkscape:version="1.4.4 (dcaf3e7d9e, 2026-05-05)"
   sodipodi:docname="taskfy-logo.svg"
   xmlns:inkscape="http://www.inkscape.org/namespaces/inkscape"
   xmlns:sodipodi="http://sodipodi.sourceforge.net/DTD/sodipodi-0.dtd"
   xmlns="http://www.w3.org/2000/svg"
   xmlns:svg="http://www.w3.org/2000/svg"><sodipodi:namedview
     id="namedview1"
     pagecolor="#ffffff"
     bordercolor="#000000"
     borderopacity="0.25"
     inkscape:showpageshadow="2"
     inkscape:pageopacity="0.0"
     inkscape:pagecheckerboard="0"
     inkscape:deskcolor="#d1d1d1"
     inkscape:document-units="mm"
     inkscape:zoom="0.5"
     inkscape:cx="481"
     inkscape:cy="506"
     inkscape:window-width="1920"
     inkscape:window-height="1011"
     inkscape:window-x="0"
     inkscape:window-y="0"
     inkscape:window-maximized="1"
     inkscape:current-layer="layer1" /><defs
     id="defs1" /><g
     inkscape:label="Camada 1"
     inkscape:groupmode="layer"
     id="layer1"><path
       style="fill:#1aa8a6;stroke:none"
       d="m 121.01726,61.599783 c -6.59689,0.866178 -13.7175,0.1523 -20.37292,0.1523 H 60.956836 c -8.127258,0 -18.81241,-2.039894 -25.664583,3.148468 -4.862397,3.681736 -6.085417,8.81369 -6.085417,14.578616 0,2.007678 0.831086,6.41487 -0.271931,8.121855 -0.68116,1.054151 -2.619575,0.883554 -3.696819,1.233695 -3.128927,1.017024 -6.409117,3.663649 -5.912097,7.3132 0.40587,2.980244 2.78494,4.955113 5.38293,6.140343 2.19679,1.0022 4.477158,0.66115 4.497715,3.64924 0.01038,1.50926 0.639867,5.0341 -0.424029,6.21405 -0.85577,0.94913 -2.910901,0.88948 -4.073686,1.30168 -2.92903,1.03832 -5.37582,3.81141 -4.97809,7.03636 0.32919,2.66923 2.82528,5.01419 5.242674,5.93843 1.113368,0.42567 2.713666,0.53183 3.620055,1.35436 1.319121,1.19708 0.870295,6.63767 0.552849,8.31273 -0.322429,1.70132 -2.299941,1.63385 -3.643738,2.04868 -2.147326,0.66288 -4.4811,2.2103 -4.93706,4.5708 -0.65219,3.37645 1.21928,6.28162 4.14331,7.85175 1.719348,0.92324 4.388508,0.86315 4.492814,3.26096 0.0737,1.69427 0.755057,6.23219 -0.419128,7.53673 -0.682985,0.75882 -2.097547,0.78952 -3.015352,1.11469 -2.54372,0.90121 -4.889024,2.75515 -5.016264,5.63587 -0.13538,3.0648 1.850174,5.25652 4.487097,6.54598 1.219822,0.59651 3.486011,0.9683 3.884638,2.46148 0.452847,1.69628 0.736551,7.35007 -0.529166,8.63653 -2.463973,2.50437 -7.293669,1.48662 -7.577379,6.43309 -0.18178,3.16936 1.778444,5.22802 4.48649,6.61949 1.362982,0.70032 3.643794,0.83874 3.929557,2.64215 0.313434,1.97805 0.8109,7.62863 -0.625939,9.14547 -2.342444,2.4729 -6.226784,1.27853 -7.169068,5.66997 -0.62416,2.90887 2.017525,5.73756 4.394617,6.97593 1.060433,0.55246 2.776252,0.70634 3.432235,1.81188 0.95532,1.61001 0.14962,4.73038 0.296631,6.55803 0.223695,2.78093 1.812269,5.6808 3.703351,7.66904 4.535108,4.76805 10.581638,4.76637 16.644866,4.76637 h 16.404167 63.500004 20.10833 c 3.77143,0 7.9328,0.37233 11.64167,-0.36482 5.89079,-1.17081 10.69324,-6.50593 11.52837,-12.33518 0.82619,-5.76694 -0.0814,-11.9379 -0.15027,-17.72708 -0.13945,-11.72611 -0.001,-23.46255 -0.001,-35.18958 V 96.941667 81.33125 c 0,-5.756351 0.16618,-10.947216 -4.257,-15.321125 -4.68016,-4.628029 -10.2857,-4.522625 -16.3805,-4.522625 -10.2396,0 -21.33965,-1.219871 -31.48541,0.112283 m -85.989591,32.69605 c 2.049092,0.01696 4.447573,1.16398 6.345915,-0.0025 2.634343,-1.618651 1.648236,-5.292248 -0.789867,-6.578039 -1.380511,-0.72804 -3.339177,-0.120099 -4.762298,0.230493 -0.03289,-2.200091 2.491975,-2.499427 4.233334,-2.356542 2.491942,0.204461 4.409428,2.30141 4.713504,4.737792 0.30724,2.461704 -0.582038,4.70782 -2.885103,5.846963 -2.230969,1.103485 -6.025771,0.9424 -6.855485,-1.878213 m -9.525,1.5875 c 0.341937,-0.391497 0.592947,-0.681143 1.073853,-0.913381 2.695345,-1.301616 3.057686,2.599939 0.255596,1.606685 -0.492169,-0.174456 -0.888923,-0.41979 -1.329449,-0.693304 m 9.260397,23.547963 c 1.879972,-0.51561 3.470323,1.14343 5.291667,0.53326 3.411613,-1.14292 4.033006,-5.74497 0.783334,-7.52553 -1.593153,-0.87291 -3.364855,0.0381 -5.016668,-0.41606 1.366801,-2.49775 5.093996,-2.34701 7.094755,-0.61266 3.078155,2.66832 2.372594,8.16401 -1.274939,9.91942 -1.051857,0.50622 -2.288975,0.59487 -3.438566,0.4273 -1.507127,-0.21969 -2.584701,-1.12564 -3.439583,-2.32573 m 65.0875,-2.57009 c 3.661084,-0.45104 10.749474,-1.04438 13.329824,2.12791 1.5627,1.92118 1.22226,4.48147 1.22226,6.79218 0,5.37986 0.27896,10.48724 -6.35,11.30135 -3.90323,0.47936 -10.322154,0.93906 -12.905384,-2.59377 -1.42123,-1.94368 -1.11753,-4.31807 -1.11753,-6.59091 0,-4.92157 -0.439398,-10.26551 5.82083,-11.03676 m -73.554167,3.89301 c 1.135154,-3.60501 4.388605,0.90933 1.328222,0.3879 -0.450231,-0.0767 -0.894543,-0.25047 -1.328222,-0.3879 m 8.466667,23.28333 c 1.880925,-0.51174 3.428465,1.21648 5.291667,0.52957 2.974778,-1.09671 4.003688,-5.09277 1.057106,-6.87711 -1.582591,-0.95836 -3.578529,-0.29018 -5.29044,-0.79621 2.618744,-4.06388 8.502154,-0.86703 8.949696,3.175 0.584186,5.27614 -7.353056,9.54086 -10.008029,3.96875 m 51.858333,-3.60372 c 2.720974,-0.55847 5.956064,-0.10044 8.731247,-0.10044 h 17.462504 c 3.11419,0 7.72111,-0.84733 10.58334,0.50793 1.24527,0.58964 2.26116,1.65584 2.78261,2.93165 0.60306,1.47549 0.39239,3.20299 0.39239,4.7625 0,3.71053 0.816,9.13313 -3.70417,10.66193 -2.62185,0.88675 -6.50149,0.18599 -9.26042,0.18599 H 92.971419 c -2.471167,0 -7.874689,1.02369 -9.993737,-0.27193 -1.456977,-0.89082 -0.854179,-4.10256 -0.854179,-5.54891 0,-4.31684 -1.349288,-11.9286 4.497916,-13.12872 m -57.679166,3.60372 c -0.196549,1.17692 -0.746563,1.28838 -1.852084,1.05834 v -0.79375 l 1.852084,-0.26459 m 6.085416,24.07709 c 2.062915,0.18125 3.752339,1.54163 5.819816,0.5504 2.649055,-1.27006 2.865709,-4.96599 0.505275,-6.6744 -1.423888,-1.03057 -3.344879,-0.75517 -5.002174,-0.75517 0.768945,-2.33464 4.031408,-2.19702 5.810215,-1.12999 1.938763,1.163 2.799902,3.72326 2.63155,5.89249 -0.341993,4.40664 -8.703878,7.33001 -9.764682,2.11667 m 43.127084,-4.94747 c 3.955298,-0.58924 8.187533,0.18497 12.170833,0.18497 h 28.045834 c 4.11868,0 11.48199,-1.40864 15.07064,0.83192 3.05631,1.90819 1.94585,5.96259 2.15095,8.95766 0.15121,2.20796 0.53206,4.46124 -0.27906,6.61071 -0.67981,1.80144 -2.39022,3.17857 -3.71336,4.50179 l -7.40812,7.40833 c -2.17082,2.17797 -4.18371,5.61665 -7.40855,6.22629 -3.33658,0.63076 -7.19063,0.12371 -10.58333,0.12371 H 85.563086 c -3.259071,0 -8.292299,0.95392 -10.791363,-1.63649 -1.886715,-1.95566 -1.37947,-5.14457 -1.37947,-7.62392 V 174.2 c 0,-2.25767 -0.393993,-4.94239 0.141068,-7.14375 0.502755,-2.06843 2.583919,-3.58557 4.621432,-3.88913 m -49.2125,5.47663 v 0.52917 h -1.5875 v -0.52917 h 1.5875 m 90.487507,0.25235 c -1.71947,0.68828 -3.10044,2.59503 -4.33501,3.90443 -2.64469,2.80498 -5.42141,5.47996 -8.07653,8.27477 -1.23644,1.30148 -2.76701,3.42818 -4.5218,4.0253 -2.14647,0.73038 -5.923344,-4.5526 -7.408334,-5.74959 -0.9488,-0.76481 -2.252269,-1.60352 -3.324846,-0.53814 -1.279863,1.27125 -0.288483,3.05658 0.693514,4.11838 2.066442,2.2344 6.823552,8.87041 10.304256,7.71129 2.42367,-0.80709 4.00865,-3.50037 5.74918,-5.21386 4.11887,-4.05495 9.0146,-7.62794 12.49544,-12.28701 1.0878,-1.45602 1.41537,-5.44295 -1.57587,-4.24557 m -84.666674,24.08932 c 2.13397,-0.58533 4.285906,1.60617 6.304064,0.26213 2.4717,-1.64607 2.481947,-5.21076 0.03532,-6.84139 -1.440876,-0.96033 -3.101579,-0.82907 -4.751882,-0.82907 1.27552,-3.72426 6.710265,-1.07558 7.850732,1.32291 2.918531,6.13794 -6.063059,12.57296 -9.438232,6.08542 m 0.264583,24.34167 c 1.715811,0.075 3.638118,1.44036 5.291667,0.79028 2.765052,-1.08707 3.672345,-4.56607 1.311281,-6.50679 -1.466787,-1.20565 -3.485414,-1.09057 -5.280031,-1.16266 2.334709,-4.46281 8.639137,0.21168 8.639379,3.96875 3.07e-4,4.86488 -8.496881,8.47707 -9.962296,2.91042 z"
       id="path1" /></g></svg>
